<svg xmlns="http://www.w3.org/2000/svg" width="1920" height="1080" viewBox="0 0 1920 1080">
  <defs>
    <pattern id="pet-pattern" x="0" y="0" width="200" height="200" patternUnits="userSpaceOnUse">
      <path d="M30 10c-5.5 0-10 4.5-10 10s4.5 10 10 10 10-4.5 10-10-4.5-10-10-10zm60 20c-5.5 0-10 4.5-10 10s4.5 10 10 10 10-4.5 10-10-4.5-10-10-10zm-30 40c-5.5 0-10 4.5-10 10s4.5 10 10 10 10-4.5 10-10-4.5-10-10-10z" fill="rgba(255,255,255,0.1)"/>
    </pattern>
  </defs>
  <rect width="100%" height="100%" fill="url(#pet-pattern)"/>
</svg>