<svg xmlns="http://www.w3.org/2000/svg" width="100" height="100" viewBox="0 0 100 100">
  <path d="M50 10c-11 0-20 9-20 20s9 20 20 20 20-9 20-20-9-20-20-20zm0 35c-8.3 0-15-6.7-15-15s6.7-15 15-15 15 6.7 15 15-6.7 15-15 15z" fill="#4ecdc4"/>
  <path d="M80 55H20c-2.8 0-5 2.2-5 5v25c0 2.8 2.2 5 5 5h60c2.8 0 5-2.2 5-5V60c0-2.8-2.2-5-5-5zm0 30H20V60h60v25z" fill="#4ecdc4"/>
  <path d="M30 65l20 15 20-15" fill="none" stroke="#4ecdc4" stroke-width="5"/>
  <circle cx="30" cy="75" r="5" fill="#4ecdc4"/>
  <circle cx="70" cy="75" r="5" fill="#4ecdc4"/>
</svg>